<?xml version="1.0" encoding="UTF-8" standalone="no"?>
<!DOCTYPE svg PUBLIC "-//W3C//DTD SVG 1.1//EN" "http://www.w3.org/Graphics/SVG/1.1/DTD/svg11.dtd">
<svg width="100%" height="100%" viewBox="0 0 400 400" version="1.1" xmlns="http://www.w3.org/2000/svg" xmlns:xlink="http://www.w3.org/1999/xlink" xml:space="preserve" xmlns:serif="http://www.serif.com/" style="fill-rule:evenodd;clip-rule:evenodd;stroke-linecap:square;stroke-linejoin:round;stroke-miterlimit:1.5;">
    <g id="Icon-2---Attempt-2" serif:id="Icon 2 - Attempt 2">
        <g transform="matrix(1.66667,0,0,1.66667,36,-209.333)">
            <circle cx="60" cy="284" r="6" style="fill:none;stroke:rgb(31,40,51);stroke-width:2.4px;"/>
        </g>
        <g transform="matrix(1.66667,0,0,1.66667,36,-241.333)">
            <circle cx="60" cy="284" r="6" style="fill:rgb(31,40,51);stroke:rgb(31,40,51);stroke-width:2.4px;"/>
        </g>
        <g transform="matrix(1.66667,0,0,1.66667,36,-273.333)">
            <circle cx="60" cy="284" r="6" style="fill:none;stroke:rgb(31,40,51);stroke-width:2.4px;"/>
        </g>
        <g transform="matrix(1.66667,0,0,1.66667,36,-305.333)">
            <circle cx="60" cy="284" r="6" style="fill:rgb(31,40,51);stroke:rgb(31,40,51);stroke-width:2.4px;"/>
        </g>
        <g transform="matrix(1.66667,0,0,1.66667,164,-241.333)">
            <circle cx="60" cy="284" r="6" style="fill:rgb(31,40,51);stroke:rgb(31,40,51);stroke-width:2.4px;"/>
        </g>
        <g transform="matrix(1.66667,0,0,1.66667,164,-273.333)">
            <circle cx="60" cy="284" r="6" style="fill:none;stroke:rgb(31,40,51);stroke-width:2.4px;"/>
        </g>
        <g transform="matrix(1.66667,0,0,1.66667,164,-305.333)">
            <circle cx="60" cy="284" r="6" style="fill:rgb(31,40,51);stroke:rgb(31,40,51);stroke-width:2.4px;"/>
        </g>
        <g transform="matrix(1.66667,0,0,1.66667,36,-337.333)">
            <circle cx="60" cy="284" r="6" style="fill:none;stroke:rgb(31,40,51);stroke-width:2.4px;"/>
        </g>
        <g transform="matrix(1.02054e-16,-1.66667,1.66667,1.02054e-16,-209.333,364)">
            <circle cx="60" cy="284" r="6" style="fill:none;stroke:rgb(31,40,51);stroke-width:2.4px;"/>
        </g>
        <g transform="matrix(1.02054e-16,-1.66667,1.66667,1.02054e-16,-241.333,364)">
            <circle cx="60" cy="284" r="6" style="fill:rgb(31,40,51);stroke:rgb(31,40,51);stroke-width:2.4px;"/>
        </g>
        <g transform="matrix(1.02054e-16,-1.66667,1.66667,1.02054e-16,-273.333,364)">
            <circle cx="60" cy="284" r="6" style="fill:none;stroke:rgb(31,40,51);stroke-width:2.4px;"/>
        </g>
        <g transform="matrix(1.02054e-16,-1.66667,1.66667,1.02054e-16,-305.333,364)">
            <circle cx="60" cy="284" r="6" style="fill:rgb(31,40,51);stroke:rgb(31,40,51);stroke-width:2.4px;"/>
        </g>
        <g transform="matrix(1.02054e-16,-1.66667,1.66667,1.02054e-16,-209.333,236)">
            <circle cx="60" cy="284" r="6" style="fill:none;stroke:rgb(31,40,51);stroke-width:2.4px;"/>
        </g>
        <g transform="matrix(1.02054e-16,-1.66667,1.66667,1.02054e-16,-305.333,236)">
            <circle cx="60" cy="284" r="6" style="fill:rgb(31,40,51);stroke:rgb(31,40,51);stroke-width:2.4px;"/>
        </g>
        <g transform="matrix(1,0,0,1,0,-30)">
            <g transform="matrix(0.852174,0,0,0.852174,18.6261,-2.43478)">
                <path d="M126,200L116,210L11,210" style="fill:none;stroke:rgb(31,40,51);stroke-width:4.69px;stroke-linecap:round;"/>
            </g>
            <g transform="matrix(6.12323e-17,1,-1,6.12323e-17,158.739,154.522)">
                <path d="M22,129.478L28,138L16,138L22,129.478Z" style="fill:none;stroke:rgb(31,40,51);stroke-width:4px;stroke-linecap:round;"/>
            </g>
        </g>
        <g transform="matrix(1,0,0,1,0,1)">
            <g transform="matrix(0.852174,0,0,0.852174,18.6261,-2.43478)">
                <path d="M126,200L116,210L11,210" style="fill:none;stroke:rgb(31,40,51);stroke-width:4.69px;stroke-linecap:round;"/>
            </g>
            <g transform="matrix(6.12323e-17,1,-1,6.12323e-17,158.739,154.522)">
                <path d="M22,129.478L28,138L16,138L22,129.478Z" style="fill:none;stroke:rgb(31,40,51);stroke-width:4px;stroke-linecap:round;"/>
            </g>
        </g>
        <g transform="matrix(1,0,0,1,0,32)">
            <g transform="matrix(0.852174,0,0,0.852174,18.6261,-2.43478)">
                <path d="M126,200L116,210L11,210" style="fill:none;stroke:rgb(31,40,51);stroke-width:4.69px;stroke-linecap:round;"/>
            </g>
            <g transform="matrix(6.12323e-17,1,-1,6.12323e-17,158.739,154.522)">
                <path d="M22,129.478L28,138L16,138L22,129.478Z" style="fill:none;stroke:rgb(31,40,51);stroke-width:4px;stroke-linecap:round;"/>
            </g>
        </g>
        <g transform="matrix(1.02054e-16,-1.66667,1.66667,1.02054e-16,-273.333,236)">
            <circle cx="60" cy="284" r="6" style="fill:none;stroke:rgb(31,40,51);stroke-width:2.4px;"/>
        </g>
        <g transform="matrix(1.02054e-16,-1.66667,1.66667,1.02054e-16,-241.333,236)">
            <circle cx="60" cy="284" r="6" style="fill:rgb(31,40,51);stroke:rgb(31,40,51);stroke-width:2.4px;"/>
        </g>
        <g transform="matrix(0.6,0,0,0.6,101.061,371.2)">
            <path d="M123,18C123,12.477 118.523,8 113,8C112.335,8 111.665,8 111,8C105.477,8 101,12.477 101,18C101,18 101,18 101,18C101,23.523 105.477,28 111,28C111.665,28 112.335,28 113,28C118.523,28 123,23.523 123,18C123,18 123,18 123,18Z" style="fill:none;stroke:rgb(31,40,51);stroke-width:6.67px;stroke-linecap:round;"/>
        </g>
        <g transform="matrix(0.6,0,0,0.6,132.652,371.2)">
            <path d="M123,18C123,12.477 118.523,8 113,8C112.335,8 111.665,8 111,8C105.477,8 101,12.477 101,18C101,18 101,18 101,18C101,23.523 105.477,28 111,28C111.665,28 112.335,28 113,28C118.523,28 123,23.523 123,18C123,18 123,18 123,18Z" style="fill:none;stroke:rgb(31,40,51);stroke-width:6.67px;stroke-linecap:round;"/>
        </g>
        <g transform="matrix(0.6,0,0,0.6,164.498,371.2)">
            <path d="M123,18C123,12.477 118.523,8 113,8C112.335,8 111.665,8 111,8C105.477,8 101,12.477 101,18C101,18 101,18 101,18C101,23.523 105.477,28 111,28C111.665,28 112.335,28 113,28C118.523,28 123,23.523 123,18C123,18 123,18 123,18Z" style="fill:none;stroke:rgb(31,40,51);stroke-width:6.67px;stroke-linecap:round;"/>
        </g>
        <g transform="matrix(1,0,0,1.16495,-0.656522,-20.7835)">
            <g transform="matrix(1,0,0,1,96.2,3)">
                <path d="M136,123L136,40" style="fill:none;stroke:rgb(31,40,51);stroke-width:3.68px;stroke-linecap:round;"/>
            </g>
            <g transform="matrix(0.6,0,0,0.6,165.1,24.2)">
                <path d="M123,17.442C123,14.938 121.841,12.536 119.778,10.766C117.715,8.995 114.917,8 112,8C112,8 112,8 112,8C109.083,8 106.285,8.995 104.222,10.766C102.159,12.536 101,14.938 101,17.442C101,17.814 101,18.186 101,18.558C101,21.062 102.159,23.464 104.222,25.234C106.285,27.005 109.083,28 112,28C112,28 112,28 112,28C114.917,28 117.715,27.005 119.778,25.234C121.841,23.464 123,21.062 123,18.558C123,18.186 123,17.814 123,17.442Z" style="fill:none;stroke:rgb(31,40,51);stroke-width:6.14px;stroke-linecap:round;"/>
            </g>
        </g>
        <g transform="matrix(1,0,0,1.16495,-33.113,-20.7835)">
            <g transform="matrix(1,0,0,1,96.2,3)">
                <path d="M136,123L136,40" style="fill:none;stroke:rgb(31,40,51);stroke-width:3.68px;stroke-linecap:round;"/>
            </g>
            <g transform="matrix(0.6,0,0,0.6,165.1,24.2)">
                <path d="M123,17.442C123,14.938 121.841,12.536 119.778,10.766C117.715,8.995 114.917,8 112,8C112,8 112,8 112,8C109.083,8 106.285,8.995 104.222,10.766C102.159,12.536 101,14.938 101,17.442C101,17.814 101,18.186 101,18.558C101,21.062 102.159,23.464 104.222,25.234C106.285,27.005 109.083,28 112,28C112,28 112,28 112,28C114.917,28 117.715,27.005 119.778,25.234C121.841,23.464 123,21.062 123,18.558C123,18.186 123,17.814 123,17.442Z" style="fill:none;stroke:rgb(31,40,51);stroke-width:6.14px;stroke-linecap:round;"/>
            </g>
        </g>
        <g transform="matrix(1,0,0,1.16495,-65.5696,-20.7835)">
            <g transform="matrix(1,0,0,1,96.2,3)">
                <path d="M136,123L136,40" style="fill:none;stroke:rgb(31,40,51);stroke-width:3.68px;stroke-linecap:round;"/>
            </g>
            <g transform="matrix(0.6,0,0,0.6,165.1,24.2)">
                <path d="M123,17.442C123,14.938 121.841,12.536 119.778,10.766C117.715,8.995 114.917,8 112,8C112,8 112,8 112,8C109.083,8 106.285,8.995 104.222,10.766C102.159,12.536 101,14.938 101,17.442C101,17.814 101,18.186 101,18.558C101,21.062 102.159,23.464 104.222,25.234C106.285,27.005 109.083,28 112,28C112,28 112,28 112,28C114.917,28 117.715,27.005 119.778,25.234C121.841,23.464 123,21.062 123,18.558C123,18.186 123,17.814 123,17.442Z" style="fill:none;stroke:rgb(31,40,51);stroke-width:6.14px;stroke-linecap:round;"/>
            </g>
        </g>
        <g transform="matrix(1,0,0,1.16495,-96.3,-20.7835)">
            <g transform="matrix(1,0,0,1,96.2,3)">
                <path d="M136,123L136,40" style="fill:none;stroke:rgb(31,40,51);stroke-width:3.68px;stroke-linecap:round;"/>
            </g>
            <g transform="matrix(0.6,0,0,0.6,165.1,24.2)">
                <path d="M123,17.442C123,14.938 121.841,12.536 119.778,10.766C117.715,8.995 114.917,8 112,8C112,8 112,8 112,8C109.083,8 106.285,8.995 104.222,10.766C102.159,12.536 101,14.938 101,17.442C101,17.814 101,18.186 101,18.558C101,21.062 102.159,23.464 104.222,25.234C106.285,27.005 109.083,28 112,28C112,28 112,28 112,28C114.917,28 117.715,27.005 119.778,25.234C121.841,23.464 123,21.062 123,18.558C123,18.186 123,17.814 123,17.442Z" style="fill:rgb(31,40,51);stroke:rgb(31,40,51);stroke-width:6.14px;stroke-linecap:round;"/>
            </g>
        </g>
        <g transform="matrix(1,0,0,1.16495,31.7,-20.7835)">
            <g transform="matrix(1,0,0,1,96.2,3)">
                <path d="M136,123L136,40" style="fill:none;stroke:rgb(31,40,51);stroke-width:3.68px;stroke-linecap:round;"/>
            </g>
            <g transform="matrix(0.6,0,0,0.6,165.1,24.2)">
                <path d="M123,17.442C123,14.938 121.841,12.536 119.778,10.766C117.715,8.995 114.917,8 112,8C112,8 112,8 112,8C109.083,8 106.285,8.995 104.222,10.766C102.159,12.536 101,14.938 101,17.442C101,17.814 101,18.186 101,18.558C101,21.062 102.159,23.464 104.222,25.234C106.285,27.005 109.083,28 112,28C112,28 112,28 112,28C114.917,28 117.715,27.005 119.778,25.234C121.841,23.464 123,21.062 123,18.558C123,18.186 123,17.814 123,17.442Z" style="fill:rgb(31,40,51);stroke:rgb(31,40,51);stroke-width:6.14px;stroke-linecap:round;"/>
            </g>
        </g>
        <g>
            <g transform="matrix(0.6,0,0,0.6,117.204,319.443)">
                <path d="M123,18C123,12.477 118.523,8 113,8C112.335,8 111.665,8 111,8C105.477,8 101,12.477 101,18C101,18 101,18 101,18C101,23.523 105.477,28 111,28C111.665,28 112.335,28 113,28C118.523,28 123,23.523 123,18C123,18 123,18 123,18Z" style="fill:rgb(31,40,51);stroke:rgb(31,40,51);stroke-width:6.67px;stroke-linecap:round;"/>
            </g>
            <g transform="matrix(1,0,0,1,0.143144,-6)">
                <rect x="168" y="230" width="7.739" height="6" style="fill:rgb(31,40,51);stroke:rgb(31,40,51);stroke-width:4px;stroke-linejoin:miter;"/>
            </g>
            <g transform="matrix(1,0,0,1,-7.59599,-6)">
                <rect x="168" y="230" width="7.739" height="6" style="fill:rgb(31,40,51);stroke:rgb(31,40,51);stroke-width:4px;stroke-linejoin:miter;"/>
            </g>
            <g transform="matrix(1.21538,0,0,0.77451,-20.0977,31.7843)">
                <path d="M168.261,274L168,376" style="fill:none;stroke:rgb(31,40,51);stroke-width:3.93px;stroke-linejoin:miter;"/>
            </g>
            <g transform="matrix(1.15976,0,0,1.15976,-29.0933,-40.2249)">
                <path d="M184.087,244L176.739,233" style="fill:none;stroke:rgb(31,40,51);stroke-width:3.45px;stroke-linecap:round;stroke-linejoin:bevel;"/>
            </g>
            <g transform="matrix(-1.15976,0,0,1.15976,397.901,-40.2249)">
                <path d="M184.087,244L176.739,233" style="fill:none;stroke:rgb(31,40,51);stroke-width:3.45px;stroke-linecap:round;stroke-linejoin:bevel;"/>
            </g>
            <g transform="matrix(-0.6,0,0,0.6,218.8,319.443)">
                <path d="M123,18C123,12.477 118.523,8 113,8C112.335,8 111.665,8 111,8C105.477,8 101,12.477 101,18C101,18 101,18 101,18C101,23.523 105.477,28 111,28C111.665,28 112.335,28 113,28C118.523,28 123,23.523 123,18C123,18 123,18 123,18Z" style="fill:none;stroke:rgb(31,40,51);stroke-width:6.67px;stroke-linecap:round;"/>
            </g>
            <g transform="matrix(-1.21538,0,0,0.77451,356.102,31.7843)">
                <path d="M168.261,274L168,376" style="fill:none;stroke:rgb(31,40,51);stroke-width:3.93px;stroke-linejoin:miter;"/>
            </g>
            <g transform="matrix(-1.15976,0,0,1.15976,365.097,-40.2249)">
                <path d="M184.087,244L176.739,233" style="fill:none;stroke:rgb(31,40,51);stroke-width:3.45px;stroke-linecap:round;stroke-linejoin:bevel;"/>
            </g>
        </g>
        <g transform="matrix(1,0,0,1,31.8569,0)">
            <g transform="matrix(0.6,0,0,0.6,117.204,319.443)">
                <path d="M123,18C123,12.477 118.523,8 113,8C112.335,8 111.665,8 111,8C105.477,8 101,12.477 101,18C101,18 101,18 101,18C101,23.523 105.477,28 111,28C111.665,28 112.335,28 113,28C118.523,28 123,23.523 123,18C123,18 123,18 123,18Z" style="fill:rgb(31,40,51);stroke:rgb(31,40,51);stroke-width:6.67px;stroke-linecap:round;"/>
            </g>
            <g transform="matrix(1,0,0,1,0.143144,-6)">
                <rect x="168" y="230" width="7.739" height="6" style="fill:rgb(31,40,51);stroke:rgb(31,40,51);stroke-width:4px;stroke-linejoin:miter;"/>
            </g>
            <g transform="matrix(1,0,0,1,-6.9311,-6)">
                <rect x="168" y="230" width="7.739" height="6" style="fill:rgb(31,40,51);stroke:rgb(31,40,51);stroke-width:4px;stroke-linejoin:miter;"/>
            </g>
            <g transform="matrix(1.21538,0,0,0.77451,-20.0977,31.7843)">
                <path d="M168.261,274L168,376" style="fill:none;stroke:rgb(31,40,51);stroke-width:3.93px;stroke-linejoin:miter;"/>
            </g>
            <g transform="matrix(1.15976,0,0,1.15976,-29.0933,-40.2249)">
                <path d="M184.087,244L176.739,233" style="fill:none;stroke:rgb(31,40,51);stroke-width:3.45px;stroke-linecap:round;stroke-linejoin:bevel;"/>
            </g>
            <g transform="matrix(-1.15976,0,0,1.15976,397.584,-40.2249)">
                <path d="M184.087,244L176.739,233" style="fill:none;stroke:rgb(31,40,51);stroke-width:3.45px;stroke-linecap:round;stroke-linejoin:bevel;"/>
            </g>
        </g>
        <path d="M136,146L136,158" style="fill:none;stroke:rgb(31,40,51);stroke-width:4px;stroke-linecap:round;"/>
        <g transform="matrix(6.12323e-17,-1,1,6.12323e-17,3.55271e-15,274)">
            <path d="M136,146L136,158" style="fill:none;stroke:rgb(31,40,51);stroke-width:4px;stroke-linecap:round;"/>
        </g>
        <g transform="matrix(6.12323e-17,-1,1,6.12323e-17,3.55271e-15,400)">
            <path d="M136,146L136,158" style="fill:none;stroke:rgb(31,40,51);stroke-width:4px;stroke-linecap:round;"/>
        </g>
        <g transform="matrix(6.12323e-17,-1,1,6.12323e-17,32,400)">
            <path d="M136,146L136,158" style="fill:none;stroke:rgb(31,40,51);stroke-width:4px;stroke-linecap:round;"/>
        </g>
        <g transform="matrix(6.12323e-17,-1,1,6.12323e-17,64,400)">
            <path d="M136,146L136,158" style="fill:none;stroke:rgb(31,40,51);stroke-width:4px;stroke-linecap:round;"/>
        </g>
        <g transform="matrix(6.12323e-17,-1,1,6.12323e-17,96,400)">
            <path d="M136,146L136,158" style="fill:none;stroke:rgb(31,40,51);stroke-width:4px;stroke-linecap:round;"/>
        </g>
        <g transform="matrix(6.12323e-17,-1,1,6.12323e-17,32,274)">
            <path d="M136,146L136,158" style="fill:none;stroke:rgb(31,40,51);stroke-width:4px;stroke-linecap:round;"/>
        </g>
        <g transform="matrix(1,0,0,1,128,0)">
            <path d="M136,146L136,158" style="fill:none;stroke:rgb(31,40,51);stroke-width:4px;stroke-linecap:round;"/>
        </g>
        <g transform="matrix(1,0,0,1,128,32)">
            <path d="M136,146L136,158" style="fill:none;stroke:rgb(31,40,51);stroke-width:4px;stroke-linecap:round;"/>
        </g>
        <g transform="matrix(1,0,0,1,128,64)">
            <path d="M136,146L136,158" style="fill:none;stroke:rgb(31,40,51);stroke-width:4px;stroke-linecap:round;"/>
        </g>
        <g transform="matrix(1,0,0,1,0,32)">
            <path d="M136,146L136,158" style="fill:none;stroke:rgb(31,40,51);stroke-width:4px;stroke-linecap:round;"/>
        </g>
        <g transform="matrix(1,0,0,1,0,64)">
            <path d="M136,146L136,158" style="fill:none;stroke:rgb(31,40,51);stroke-width:4px;stroke-linecap:round;"/>
        </g>
        <g transform="matrix(1,0,0,1,0,96)">
            <path d="M136,146L136,158" style="fill:none;stroke:rgb(31,40,51);stroke-width:4px;stroke-linecap:round;"/>
        </g>
        <g transform="matrix(1,0,0,1,128,96)">
            <path d="M136,146L136,158" style="fill:none;stroke:rgb(31,40,51);stroke-width:4px;stroke-linecap:round;"/>
        </g>
        <g transform="matrix(6.12323e-17,-1,1,6.12323e-17,64,274)">
            <path d="M136,146L136,158" style="fill:none;stroke:rgb(31,40,51);stroke-width:4px;stroke-linecap:round;"/>
        </g>
        <g transform="matrix(6.12323e-17,-1,1,6.12323e-17,96,274)">
            <path d="M136,146L136,158" style="fill:none;stroke:rgb(31,40,51);stroke-width:4px;stroke-linecap:round;"/>
        </g>
        <g transform="matrix(-1,-1.22465e-16,1.22465e-16,-1,400,467)">
            <g transform="matrix(0.852174,0,0,0.852174,18.6261,63.5652)">
                <path d="M126,200L116,210L11,210" style="fill:none;stroke:rgb(31,40,51);stroke-width:4.69px;stroke-linecap:round;"/>
            </g>
            <g transform="matrix(6.12323e-17,1,-1,6.12323e-17,157.739,220.261)">
                <path d="M22,129.478L28,138L16,138L22,129.478Z" style="fill:rgb(31,40,51);stroke:rgb(31,40,51);stroke-width:4px;stroke-linecap:round;"/>
            </g>
        </g>
        <g transform="matrix(-1,-1.22465e-16,1.22465e-16,-1,400,499.261)">
            <g transform="matrix(0.852174,0,0,0.852174,18.6261,63.5652)">
                <path d="M126,200L116,210L11,210" style="fill:none;stroke:rgb(31,40,51);stroke-width:4.69px;stroke-linecap:round;"/>
            </g>
            <g transform="matrix(6.12323e-17,1,-1,6.12323e-17,157.739,220.261)">
                <path d="M22,129.478L28,138L16,138L22,129.478Z" style="fill:rgb(31,40,51);stroke:rgb(31,40,51);stroke-width:4px;stroke-linecap:round;"/>
            </g>
        </g>
        <g transform="matrix(-1,-1.22465e-16,1.22465e-16,-1,400,400.522)">
            <g transform="matrix(0.852174,0,0,0.852174,18.6261,96.5652)">
                <path d="M126,200L116,210L11,210" style="fill:none;stroke:rgb(31,40,51);stroke-width:4.69px;stroke-linecap:round;"/>
            </g>
            <g transform="matrix(6.12323e-17,1,-1,6.12323e-17,157.739,253.522)">
                <path d="M22,129.478L28,138L16,138L22,129.478Z" style="fill:rgb(31,40,51);stroke:rgb(31,40,51);stroke-width:4px;stroke-linecap:round;"/>
            </g>
        </g>
        <g transform="matrix(-1,-1.22465e-16,1.22465e-16,-1,400,433.783)">
            <g transform="matrix(0.852174,0,0,0.852174,18.6261,96.5652)">
                <path d="M126,200L116,210L11,210" style="fill:none;stroke:rgb(31,40,51);stroke-width:4.69px;stroke-linecap:round;"/>
            </g>
            <g transform="matrix(6.12323e-17,1,-1,6.12323e-17,157.739,253.522)">
                <path d="M22,129.478L28,138L16,138L22,129.478Z" style="fill:rgb(31,40,51);stroke:rgb(31,40,51);stroke-width:4px;stroke-linecap:round;"/>
            </g>
        </g>
        <g transform="matrix(-1,-1.22465e-16,1.22465e-16,-1,400,467)">
            <g transform="matrix(0.852174,0,0,0.852174,18.6261,96.5652)">
                <path d="M126,200L116,210L11,210" style="fill:none;stroke:rgb(31,40,51);stroke-width:4.69px;stroke-linecap:round;"/>
            </g>
            <g transform="matrix(6.12323e-17,1,-1,6.12323e-17,157.739,253.522)">
                <path d="M22,129.478L28,138L16,138L22,129.478Z" style="fill:rgb(31,40,51);stroke:rgb(31,40,51);stroke-width:4px;stroke-linecap:round;"/>
            </g>
        </g>
        <path d="M168.261,274L168,376" style="fill:none;stroke:rgb(31,40,51);stroke-width:4px;stroke-linejoin:miter;"/>
        <path d="M168.261,274L168,376" style="fill:none;stroke:rgb(31,40,51);stroke-width:4px;stroke-linejoin:miter;"/>
        <g transform="matrix(0.6,0,0,0.6,69.4,371.2)">
            <path d="M123,18C123,12.477 118.523,8 113,8C112.335,8 111.665,8 111,8C105.477,8 101,12.477 101,18C101,18 101,18 101,18C101,23.523 105.477,28 111,28C111.665,28 112.335,28 113,28C118.523,28 123,23.523 123,18C123,18 123,18 123,18Z" style="fill:rgb(31,40,51);stroke:rgb(31,40,51);stroke-width:6.67px;stroke-linecap:round;"/>
        </g>
        <g transform="matrix(1,0,0,1,-31.6609,0)">
            <path d="M168.261,274L168,376" style="fill:none;stroke:rgb(31,40,51);stroke-width:4px;stroke-linejoin:miter;"/>
        </g>
        <g transform="matrix(0.6,0,0,0.6,197.4,371.2)">
            <path d="M123,18C123,12.477 118.523,8 113,8C112.335,8 111.665,8 111,8C105.477,8 101,12.477 101,18C101,18 101,18 101,18C101,23.523 105.477,28 111,28C111.665,28 112.335,28 113,28C118.523,28 123,23.523 123,18C123,18 123,18 123,18Z" style="fill:rgb(31,40,51);stroke:rgb(31,40,51);stroke-width:6.67px;stroke-linecap:round;"/>
        </g>
        <g transform="matrix(1,0,0,1,96.3391,0)">
            <path d="M168.261,274L168,376" style="fill:none;stroke:rgb(31,40,51);stroke-width:4px;stroke-linejoin:miter;"/>
        </g>
        <g transform="matrix(1.56923,0,0,1,-63.7793,-2.50111e-12)">
            <path d="M168.261,274L168,376" style="fill:none;stroke:rgb(31,40,51);stroke-width:3.04px;stroke-linejoin:miter;"/>
        </g>
        <g transform="matrix(1,0,0,1,63.4373,-6.7466e-11)">
            <path d="M168.261,274L168,376" style="fill:none;stroke:rgb(31,40,51);stroke-width:4px;stroke-linejoin:miter;"/>
        </g>
        <g transform="matrix(1,0,0,1,63.7137,0)">
            <g transform="matrix(0.6,0,0,0.6,117.204,319.443)">
                <path d="M123,18C123,12.477 118.523,8 113,8C112.335,8 111.665,8 111,8C105.477,8 101,12.477 101,18C101,18 101,18 101,18C101,23.523 105.477,28 111,28C111.665,28 112.335,28 113,28C118.523,28 123,23.523 123,18C123,18 123,18 123,18Z" style="fill:none;stroke:rgb(31,40,51);stroke-width:6.67px;stroke-linecap:round;"/>
            </g>
            <g transform="matrix(1,0,0,1,0.143144,-6)">
                <rect x="168" y="230" width="7.739" height="6" style="fill:rgb(31,40,51);stroke:rgb(31,40,51);stroke-width:4px;stroke-linejoin:miter;"/>
            </g>
            <g transform="matrix(1.21538,0,0,0.77451,-20.0977,31.7843)">
                <path d="M168.261,274L168,376" style="fill:none;stroke:rgb(31,40,51);stroke-width:3.93px;stroke-linejoin:miter;"/>
            </g>
            <g transform="matrix(1.15976,0,0,1.15976,-29.0933,-40.2249)">
                <path d="M184.087,244L176.739,233" style="fill:none;stroke:rgb(31,40,51);stroke-width:3.45px;stroke-linecap:round;stroke-linejoin:bevel;"/>
            </g>
        </g>
        <g transform="matrix(-0.6,-7.34788e-17,7.34788e-17,-0.6,282.514,72.8)">
            <path d="M123,18C123,12.477 118.523,8 113,8C112.335,8 111.665,8 111,8C105.477,8 101,12.477 101,18C101,18 101,18 101,18C101,23.523 105.477,28 111,28C111.665,28 112.335,28 113,28C118.523,28 123,23.523 123,18C123,18 123,18 123,18Z" style="fill:rgb(31,40,51);stroke:rgb(31,40,51);stroke-width:6.67px;stroke-linecap:round;"/>
        </g>
        <g transform="matrix(-1,-1.22465e-16,1.22465e-16,-1,407.314,398.243)">
            <rect x="168" y="230" width="7.739" height="6" style="fill:rgb(31,40,51);stroke:rgb(31,40,51);stroke-width:4px;stroke-linejoin:miter;"/>
        </g>
        <g transform="matrix(-1,-1.22465e-16,1.22465e-16,-1,399.575,398.243)">
            <rect x="168" y="230" width="7.739" height="6" style="fill:rgb(31,40,51);stroke:rgb(31,40,51);stroke-width:4px;stroke-linejoin:miter;"/>
        </g>
        <g transform="matrix(-1.21538,-1.48842e-16,9.48501e-17,-0.77451,419.815,360.458)">
            <path d="M168.261,274L168,376" style="fill:none;stroke:rgb(31,40,51);stroke-width:3.93px;stroke-linejoin:miter;"/>
        </g>
        <g transform="matrix(-1.21538,-1.48842e-16,9.48501e-17,-0.77451,452.502,360.458)">
            <path d="M168.261,274L168,376" style="fill:none;stroke:rgb(31,40,51);stroke-width:3.93px;stroke-linejoin:miter;"/>
        </g>
        <g transform="matrix(-1.15976,-1.4203e-16,1.4203e-16,-1.15976,428.811,432.467)">
            <path d="M184.087,244L176.739,233" style="fill:none;stroke:rgb(31,40,51);stroke-width:3.45px;stroke-linecap:round;stroke-linejoin:bevel;"/>
        </g>
        <g transform="matrix(1.15976,1.4203e-16,1.4203e-16,-1.15976,1.81641,432.467)">
            <path d="M184.087,244L176.739,233" style="fill:none;stroke:rgb(31,40,51);stroke-width:3.45px;stroke-linecap:round;stroke-linejoin:bevel;"/>
        </g>
        <g transform="matrix(0.6,7.34788e-17,7.34788e-17,-0.6,180.918,72.8)">
            <path d="M123,18C123,12.477 118.523,8 113,8C112.335,8 111.665,8 111,8C105.477,8 101,12.477 101,18C101,18 101,18 101,18C101,23.523 105.477,28 111,28C111.665,28 112.335,28 113,28C118.523,28 123,23.523 123,18C123,18 123,18 123,18Z" style="fill:none;stroke:rgb(31,40,51);stroke-width:6.67px;stroke-linecap:round;"/>
        </g>
        <g transform="matrix(1.15976,1.4203e-16,1.4203e-16,-1.15976,34.6204,432.467)">
            <path d="M184.087,244L176.739,233" style="fill:none;stroke:rgb(31,40,51);stroke-width:3.45px;stroke-linecap:round;stroke-linejoin:bevel;"/>
        </g>
        <g transform="matrix(-1,-1.22465e-16,1.22465e-16,-1,367.861,392.243)">
            <g transform="matrix(0.6,0,0,0.6,117.204,319.443)">
                <path d="M123,18C123,12.477 118.523,8 113,8C112.335,8 111.665,8 111,8C105.477,8 101,12.477 101,18C101,18 101,18 101,18C101,23.523 105.477,28 111,28C111.665,28 112.335,28 113,28C118.523,28 123,23.523 123,18C123,18 123,18 123,18Z" style="fill:rgb(31,40,51);stroke:rgb(31,40,51);stroke-width:6.67px;stroke-linecap:round;"/>
            </g>
            <g transform="matrix(1,0,0,1,0.143144,-6)">
                <rect x="168" y="230" width="7.739" height="6" style="fill:rgb(31,40,51);stroke:rgb(31,40,51);stroke-width:4px;stroke-linejoin:miter;"/>
            </g>
            <g transform="matrix(1,0,0,1,-6.9311,-6)">
                <rect x="168" y="230" width="7.739" height="6" style="fill:rgb(31,40,51);stroke:rgb(31,40,51);stroke-width:4px;stroke-linejoin:miter;"/>
            </g>
            <g transform="matrix(1.21538,0,0,0.77451,-20.0977,31.7843)">
                <path d="M168.261,274L168,376" style="fill:none;stroke:rgb(31,40,51);stroke-width:3.93px;stroke-linejoin:miter;"/>
            </g>
            <g transform="matrix(1.15976,0,0,1.15976,-29.0933,-40.2249)">
                <path d="M184.087,244L176.739,233" style="fill:none;stroke:rgb(31,40,51);stroke-width:3.45px;stroke-linecap:round;stroke-linejoin:bevel;"/>
            </g>
            <g transform="matrix(-1.15976,0,0,1.15976,397.584,-40.2249)">
                <path d="M184.087,244L176.739,233" style="fill:none;stroke:rgb(31,40,51);stroke-width:3.45px;stroke-linecap:round;stroke-linejoin:bevel;"/>
            </g>
        </g>
        <g transform="matrix(-1,-1.22465e-16,1.22465e-16,-1,336.004,392.243)">
            <g transform="matrix(0.6,0,0,0.6,117.204,319.443)">
                <path d="M123,18C123,12.477 118.523,8 113,8C112.335,8 111.665,8 111,8C105.477,8 101,12.477 101,18C101,18 101,18 101,18C101,23.523 105.477,28 111,28C111.665,28 112.335,28 113,28C118.523,28 123,23.523 123,18C123,18 123,18 123,18Z" style="fill:none;stroke:rgb(31,40,51);stroke-width:6.67px;stroke-linecap:round;"/>
            </g>
            <g transform="matrix(1,0,0,1,0.143144,-6)">
                <rect x="168" y="230" width="7.739" height="6" style="fill:rgb(31,40,51);stroke:rgb(31,40,51);stroke-width:4px;stroke-linejoin:miter;"/>
            </g>
            <g transform="matrix(1,0,0,1,-7.87826,-6)">
                <rect x="168" y="230" width="7.739" height="6" style="fill:rgb(31,40,51);stroke:rgb(31,40,51);stroke-width:4px;stroke-linejoin:miter;"/>
            </g>
            <g transform="matrix(1.21538,0,0,0.77451,-20.0977,31.7843)">
                <path d="M168.261,274L168,376" style="fill:none;stroke:rgb(31,40,51);stroke-width:3.93px;stroke-linejoin:miter;"/>
            </g>
            <g transform="matrix(1.15976,0,0,1.15976,-29.0933,-40.2249)">
                <path d="M184.087,244L176.739,233" style="fill:none;stroke:rgb(31,40,51);stroke-width:3.45px;stroke-linecap:round;stroke-linejoin:bevel;"/>
            </g>
        </g>
        <g transform="matrix(1,0,0,1,56.4656,-6)">
            <rect x="168" y="230" width="7.739" height="6" style="fill:rgb(31,40,51);stroke:rgb(31,40,51);stroke-width:4px;stroke-linejoin:miter;"/>
        </g>
        <g transform="matrix(1,0,0,1,0,63)">
            <g transform="matrix(0.852174,0,0,0.852174,18.6261,-2.43478)">
                <path d="M126,200L116,210L11,210" style="fill:none;stroke:rgb(31,40,51);stroke-width:4.69px;stroke-linecap:round;"/>
            </g>
            <g transform="matrix(6.12323e-17,1,-1,6.12323e-17,158.739,154.522)">
                <path d="M22,129.478L28,138L16,138L22,129.478Z" style="fill:none;stroke:rgb(31,40,51);stroke-width:4px;stroke-linecap:round;"/>
            </g>
        </g>
        <g transform="matrix(1,0,0,1,0,94)">
            <g transform="matrix(0.852174,0,0,0.852174,18.6261,-2.43478)">
                <path d="M126,200L116,210L11,210" style="fill:none;stroke:rgb(31,40,51);stroke-width:4.69px;stroke-linecap:round;"/>
            </g>
            <g transform="matrix(6.12323e-17,1,-1,6.12323e-17,158.739,154.522)">
                <path d="M22,129.478L28,138L16,138L22,129.478Z" style="fill:none;stroke:rgb(31,40,51);stroke-width:4px;stroke-linecap:round;"/>
            </g>
        </g>
    </g>
</svg>
