<?xml version="1.0" encoding="UTF-8" standalone="no"?>
<!DOCTYPE svg PUBLIC "-//W3C//DTD SVG 1.1//EN" "http://www.w3.org/Graphics/SVG/1.1/DTD/svg11.dtd">
<svg width="100%" height="100%" viewBox="0 0 400 400" version="1.1" xmlns="http://www.w3.org/2000/svg" xmlns:xlink="http://www.w3.org/1999/xlink" xml:space="preserve" xmlns:serif="http://www.serif.com/" style="fill-rule:evenodd;clip-rule:evenodd;stroke-linecap:round;stroke-linejoin:round;stroke-miterlimit:1.5;">
    <g id="Icon-1" serif:id="Icon 1" transform="matrix(0.791758,0,0,1.05966,40.0649,9.77404)">
        <g transform="matrix(1,0,0,1,1.5,13.9557)">
            <g transform="matrix(-1,0,0,1,403,48.8608)">
                <path d="M27,97C43.371,87.52 57.562,86.775 69.075,96.76C80.581,90.805 90.956,88.811 98.538,96.591C105.239,89.933 112.174,86.665 120.011,96.469C125.552,87.863 129.198,91.142 132.529,96.397C143.571,90.644 154.302,87.314 163.466,96.22C175.656,91.296 188.321,88.906 202.768,95.996C215.108,88.093 228.439,86.634 246.134,95.748C253.54,90.483 261.65,89.74 270.791,95.607C281.667,84.234 289.794,85.301 295.91,95.463C309.914,89.682 323.179,87.665 334.559,95.243C340.102,91.304 346.064,87.97 359.247,95.101C363.187,89.271 369.407,90.126 377,95" style="fill:none;stroke:rgb(118,118,118);stroke-width:6.41px;"/>
            </g>
            <g transform="matrix(1,0,0,1,-1,26.3165)">
                <path d="M27,97C43.371,87.52 57.562,86.775 69.075,96.76C80.581,90.805 90.956,88.811 98.538,96.591C105.239,89.933 112.174,86.665 120.011,96.469C125.552,87.863 129.198,91.142 132.529,96.397C143.571,90.644 154.302,87.314 163.466,96.22C175.656,91.296 188.321,88.906 202.768,95.996C215.108,88.093 228.439,86.634 246.134,95.748C253.54,90.483 261.65,89.74 270.791,95.607C281.667,84.234 289.794,85.301 295.91,95.463C309.914,89.682 323.179,87.665 334.559,95.243C340.102,91.304 346.064,87.97 359.247,95.101C363.187,89.271 369.407,90.126 377,95" style="fill:none;stroke:rgb(0,137,33);stroke-width:6.41px;"/>
            </g>
            <g transform="matrix(1,0,0,1,-3,71.4052)">
                <path d="M27,97C43.371,87.52 57.562,86.775 69.075,96.76C80.581,90.805 90.956,88.811 98.538,96.591C105.239,89.933 112.174,86.665 120.011,96.469C125.552,87.863 129.198,91.142 132.529,96.397C143.571,90.644 154.302,87.314 163.466,96.22C175.656,91.296 188.321,88.906 202.768,95.996C215.108,88.093 228.439,86.634 246.134,95.748C253.54,90.483 261.65,89.74 270.791,95.607C281.667,84.234 289.794,85.301 295.91,95.463C309.914,89.682 323.179,87.665 334.559,95.243C340.102,91.304 346.064,87.97 359.247,95.101C363.187,89.271 369.407,90.126 377,95" style="fill:none;stroke:rgb(118,118,118);stroke-width:6.41px;"/>
            </g>
            <g transform="matrix(-1,0,0,1,401,93.9495)">
                <path d="M27,97C43.371,87.52 57.562,86.775 69.075,96.76C80.581,90.805 90.956,88.811 98.538,96.591C105.239,89.933 112.174,86.665 120.011,96.469C125.552,87.863 129.198,91.142 132.529,96.397C143.571,90.644 154.302,87.314 163.466,96.22C175.656,91.296 188.321,88.906 202.768,95.996C215.108,88.093 228.439,86.634 246.134,95.748C253.54,90.483 261.65,89.74 270.791,95.607C281.667,84.234 289.794,85.301 295.91,95.463C309.914,89.682 323.179,87.665 334.559,95.243C340.102,91.304 346.064,87.97 359.247,95.101C363.187,89.271 369.407,90.126 377,95" style="fill:none;stroke:rgb(118,118,118);stroke-width:6.41px;"/>
            </g>
            <g transform="matrix(1,0,0,1,-3,116.494)">
                <path d="M27,97C43.371,87.52 57.562,86.775 69.075,96.76C80.581,90.805 90.956,88.811 98.538,96.591C105.239,89.933 112.174,86.665 120.011,96.469C125.552,87.863 129.198,91.142 132.529,96.397C143.571,90.644 154.302,87.314 163.466,96.22C175.656,91.296 188.321,88.906 202.768,95.996C215.108,88.093 228.439,86.634 246.134,95.748C253.54,90.483 261.65,89.74 270.791,95.607C281.667,84.234 289.794,85.301 295.91,95.463C309.914,89.682 323.179,87.665 334.559,95.243C340.102,91.304 346.064,87.97 359.247,95.101C363.187,89.271 369.407,90.126 377,95" style="fill:none;stroke:rgb(118,118,118);stroke-width:6.41px;"/>
            </g>
            <g transform="matrix(1,0,0,1,4.26326e-14,-60.4557)">
                <path d="M27,97C43.371,87.52 57.562,86.775 69.075,96.76C80.581,90.805 90.956,88.811 98.538,96.591C105.239,89.933 112.174,86.665 120.011,96.469C125.552,87.863 129.198,91.142 132.529,96.397C143.571,90.644 154.302,87.314 163.466,96.22C175.656,91.296 188.321,88.906 202.768,95.996C215.108,88.093 228.439,86.634 246.134,95.748C253.54,90.483 261.65,89.74 270.791,95.607C281.667,84.234 289.794,85.301 295.91,95.463C309.914,89.682 323.179,87.665 334.559,95.243C340.102,91.304 346.064,87.97 359.247,95.101C363.187,89.271 369.407,90.126 377,95" style="fill:none;stroke:rgb(118,118,118);stroke-width:6.41px;"/>
            </g>
            <g transform="matrix(-1,0,0,1,404,-37.9113)">
                <path d="M27,97C43.371,87.52 57.562,86.775 69.075,96.76C80.581,90.805 90.956,88.811 98.538,96.591C105.239,89.933 112.174,86.665 120.011,96.469C125.552,87.863 129.198,91.142 132.529,96.397C143.571,90.644 154.302,87.314 163.466,96.22C175.656,91.296 188.321,88.906 202.768,95.996C215.108,88.093 228.439,86.634 246.134,95.748C253.54,90.483 261.65,89.74 270.791,95.607C281.667,84.234 289.794,85.301 295.91,95.463C309.914,89.682 323.179,87.665 334.559,95.243C340.102,91.304 346.064,87.97 359.247,95.101C363.187,89.271 369.407,90.126 377,95" style="fill:none;stroke:rgb(118,118,118);stroke-width:6.41px;"/>
            </g>
            <g transform="matrix(1,0,0,1,4.26326e-14,-15.367)">
                <path d="M27,97C43.371,87.52 57.562,86.775 69.075,96.76C80.581,90.805 90.956,88.811 98.538,96.591C105.239,89.933 112.174,86.665 120.011,96.469C125.552,87.863 129.198,91.142 132.529,96.397C143.571,90.644 154.302,87.314 163.466,96.22C175.656,91.296 188.321,88.906 202.768,95.996C215.108,88.093 228.439,86.634 246.134,95.748C253.54,90.483 261.65,89.74 270.791,95.607C281.667,84.234 289.794,85.301 295.91,95.463C309.914,89.682 323.179,87.665 334.559,95.243C340.102,91.304 346.064,87.97 359.247,95.101C363.187,89.271 369.407,90.126 377,95" style="fill:none;stroke:rgb(118,118,118);stroke-width:6.41px;"/>
            </g>
            <g transform="matrix(-1,0,0,1,401,161.089)">
                <path d="M27,97C43.371,87.52 57.562,86.775 69.075,96.76C80.581,90.805 90.956,88.811 98.538,96.591C105.239,89.933 112.174,86.665 120.011,96.469C125.552,87.863 129.198,91.142 132.529,96.397C143.571,90.644 154.302,87.314 163.466,96.22C175.656,91.296 188.321,88.906 202.768,95.996C215.108,88.093 228.439,86.634 246.134,95.748C253.54,90.483 261.65,89.74 270.791,95.607C281.667,84.234 289.794,85.301 295.91,95.463C309.914,89.682 323.179,87.665 334.559,95.243C340.102,91.304 346.064,87.97 359.247,95.101C363.187,89.271 369.407,90.126 377,95" style="fill:none;stroke:rgb(118,118,118);stroke-width:6.41px;"/>
            </g>
            <g transform="matrix(1,0,0,1,-3,183.633)">
                <path d="M27,97C43.371,87.52 57.562,86.775 69.075,96.76C80.581,90.805 90.956,88.811 98.538,96.591C105.239,89.933 112.174,86.665 120.011,96.469C125.552,87.863 129.198,91.142 132.529,96.397C143.571,90.644 154.302,87.314 163.466,96.22C175.656,91.296 188.321,88.906 202.768,95.996C215.108,88.093 228.439,86.634 246.134,95.748C253.54,90.483 261.65,89.74 270.791,95.607C281.667,84.234 289.794,85.301 295.91,95.463C309.914,89.682 323.179,87.665 334.559,95.243C340.102,91.304 346.064,87.97 359.247,95.101C363.187,89.271 369.407,90.126 377,95" style="fill:none;stroke:rgb(118,118,118);stroke-width:6.41px;"/>
            </g>
            <g transform="matrix(-1,0,0,1,403,206.177)">
                <path d="M27,97C43.371,87.52 57.562,86.775 69.075,96.76C80.581,90.805 90.956,88.811 98.538,96.591C105.239,89.933 112.174,86.665 120.011,96.469C125.552,87.863 129.198,91.142 132.529,96.397C143.571,90.644 154.302,87.314 163.466,96.22C175.656,91.296 188.321,88.906 202.768,95.996C215.108,88.093 228.439,86.634 246.134,95.748C253.54,90.483 261.65,89.74 270.791,95.607C281.667,84.234 289.794,85.301 295.91,95.463C309.914,89.682 323.179,87.665 334.559,95.243C340.102,91.304 346.064,87.97 359.247,95.101C363.187,89.271 369.407,90.126 377,95" style="fill:none;stroke:rgb(118,118,118);stroke-width:6.41px;"/>
            </g>
        </g>
        <g transform="matrix(1.29889,0,0,1,-59.0775,-25.9557)">
            <path d="M372.482,28.764L372.544,28.766L372.606,28.768L372.667,28.77L372.729,28.774L372.79,28.778L372.851,28.783L372.912,28.788L372.973,28.795L373.034,28.802L373.154,28.818L373.273,28.837L373.391,28.859L373.509,28.884L373.625,28.911L373.74,28.942L373.854,28.975L373.966,29.01L374.078,29.048L374.188,29.089L374.297,29.132L374.405,29.178L374.511,29.226L374.616,29.276L374.719,29.329L374.821,29.384L374.921,29.442L375.02,29.502L375.117,29.564L375.212,29.628L375.306,29.694L375.398,29.763L375.488,29.833L375.576,29.906L375.663,29.98L375.748,30.057L375.83,30.135L375.911,30.216L375.99,30.298L376.067,30.382L376.142,30.468L376.214,30.555L376.285,30.644L376.353,30.735L376.419,30.828L376.483,30.922L376.545,31.018L376.604,31.115L376.661,31.214L376.715,31.314L376.767,31.416L376.817,31.519L376.864,31.623L376.908,31.729L376.95,31.836L376.99,31.944L377.026,32.054L377.06,32.164L377.091,32.276L377.12,32.389L377.145,32.502L377.168,32.617L377.188,32.733L377.204,32.849L377.212,32.908L377.218,32.967L377.224,33.026L377.229,33.086L377.233,33.145L377.237,33.205L377.24,33.265L377.242,33.325L377.243,33.385L377.243,33.445L377.243,376.555L377.243,376.615L377.242,376.675L377.24,376.735L377.237,376.795L377.233,376.855L377.229,376.914L377.224,376.974L377.218,377.033L377.212,377.092L377.204,377.151L377.188,377.267L377.168,377.383L377.145,377.498L377.12,377.611L377.091,377.724L377.06,377.836L377.026,377.946L376.99,378.056L376.95,378.164L376.908,378.271L376.864,378.377L376.817,378.481L376.767,378.584L376.715,378.686L376.661,378.786L376.604,378.885L376.545,378.982L376.483,379.078L376.419,379.172L376.353,379.265L376.285,379.356L376.214,379.445L376.142,379.532L376.067,379.618L375.99,379.702L375.911,379.784L375.83,379.865L375.748,379.943L375.663,380.02L375.576,380.094L375.488,380.167L375.398,380.237L375.306,380.306L375.212,380.372L375.117,380.436L375.02,380.498L374.921,380.558L374.821,380.616L374.719,380.671L374.616,380.724L374.511,380.774L374.405,380.822L374.297,380.868L374.188,380.911L374.078,380.952L373.966,380.99L373.854,381.025L373.74,381.058L373.625,381.089L373.509,381.116L373.391,381.141L373.273,381.163L373.154,381.182L373.034,381.198L372.973,381.205L372.912,381.212L372.851,381.217L372.79,381.222L372.729,381.226L372.667,381.23L372.606,381.232L372.544,381.234L372.482,381.236L372.42,381.236L29.58,381.236L29.518,381.236L29.456,381.234L29.394,381.232L29.333,381.23L29.271,381.226L29.21,381.222L29.149,381.217L29.088,381.212L29.027,381.205L28.966,381.198L28.846,381.182L28.727,381.163L28.609,381.141L28.491,381.116L28.375,381.089L28.26,381.058L28.146,381.025L28.034,380.99L27.922,380.952L27.812,380.911L27.703,380.868L27.595,380.822L27.489,380.774L27.384,380.724L27.281,380.671L27.179,380.616L27.079,380.558L26.98,380.498L26.883,380.436L26.788,380.372L26.694,380.306L26.602,380.237L26.512,380.167L26.424,380.094L26.337,380.02L26.252,379.943L26.17,379.865L26.089,379.784L26.01,379.702L25.933,379.618L25.858,379.532L25.786,379.445L25.715,379.356L25.647,379.265L25.581,379.172L25.517,379.078L25.455,378.982L25.396,378.885L25.339,378.786L25.285,378.686L25.233,378.584L25.183,378.481L25.136,378.377L25.092,378.271L25.05,378.164L25.01,378.056L24.974,377.946L24.94,377.836L24.909,377.724L24.88,377.611L24.855,377.498L24.832,377.383L24.812,377.267L24.796,377.151L24.788,377.092L24.782,377.033L24.776,376.974L24.771,376.914L24.767,376.855L24.763,376.795L24.76,376.735L24.758,376.675L24.757,376.615L24.757,376.555L24.757,33.445L24.757,33.385L24.758,33.325L24.76,33.265L24.763,33.205L24.767,33.145L24.771,33.086L24.776,33.026L24.782,32.967L24.788,32.908L24.796,32.849L24.812,32.733L24.832,32.617L24.855,32.502L24.88,32.389L24.909,32.276L24.94,32.164L24.974,32.054L25.01,31.944L25.05,31.836L25.092,31.729L25.136,31.623L25.183,31.519L25.233,31.416L25.285,31.314L25.339,31.214L25.396,31.115L25.455,31.018L25.517,30.922L25.581,30.828L25.647,30.735L25.715,30.644L25.786,30.555L25.858,30.468L25.933,30.382L26.01,30.298L26.089,30.216L26.17,30.135L26.252,30.057L26.337,29.98L26.424,29.906L26.512,29.833L26.602,29.763L26.694,29.694L26.788,29.628L26.883,29.564L26.98,29.502L27.079,29.442L27.179,29.384L27.281,29.329L27.384,29.276L27.489,29.226L27.595,29.178L27.703,29.132L27.812,29.089L27.922,29.048L28.034,29.01L28.146,28.975L28.26,28.942L28.375,28.911L28.491,28.884L28.609,28.859L28.727,28.837L28.846,28.818L28.966,28.802L29.027,28.795L29.088,28.788L29.149,28.783L29.21,28.778L29.271,28.774L29.333,28.77L29.394,28.768L29.456,28.766L29.518,28.764L29.58,28.764L372.42,28.764L372.482,28.764ZM29.581,29.236L29.524,29.236L29.469,29.237L29.413,29.239L29.357,29.241L29.302,29.244L29.247,29.248L29.192,29.253L29.137,29.258L29.082,29.263L29.029,29.27L28.92,29.284L28.813,29.302L28.706,29.321L28.601,29.344L28.496,29.368L28.393,29.396L28.291,29.425L28.189,29.457L28.089,29.491L27.99,29.528L27.892,29.567L27.796,29.608L27.7,29.651L27.606,29.696L27.513,29.744L27.422,29.794L27.332,29.845L27.243,29.899L27.156,29.955L27.07,30.012L26.986,30.072L26.903,30.134L26.822,30.197L26.742,30.262L26.664,30.329L26.588,30.398L26.514,30.469L26.441,30.541L26.37,30.615L26.301,30.691L26.233,30.768L26.168,30.847L26.105,30.927L26.043,31.009L25.984,31.092L25.926,31.177L25.871,31.263L25.818,31.35L25.766,31.439L25.717,31.529L25.671,31.621L25.626,31.713L25.584,31.807L25.544,31.902L25.506,31.998L25.471,32.095L25.438,32.194L25.408,32.293L25.38,32.393L25.354,32.495L25.331,32.597L25.311,32.7L25.293,32.804L25.278,32.91L25.271,32.962L25.266,33.015L25.26,33.068L25.256,33.121L25.252,33.175L25.249,33.229L25.246,33.283L25.245,33.337L25.243,33.391L25.243,33.446L25.243,376.554L25.243,376.609L25.245,376.663L25.246,376.717L25.249,376.771L25.252,376.825L25.256,376.879L25.26,376.932L25.266,376.985L25.271,377.038L25.278,377.09L25.293,377.196L25.311,377.3L25.331,377.403L25.354,377.505L25.38,377.607L25.408,377.707L25.438,377.806L25.471,377.905L25.506,378.002L25.544,378.098L25.584,378.193L25.626,378.287L25.671,378.379L25.717,378.471L25.766,378.561L25.818,378.65L25.871,378.737L25.926,378.823L25.984,378.908L26.043,378.991L26.105,379.073L26.168,379.153L26.233,379.232L26.301,379.309L26.37,379.385L26.441,379.459L26.514,379.531L26.588,379.602L26.664,379.671L26.742,379.738L26.822,379.803L26.903,379.866L26.986,379.928L27.07,379.988L27.156,380.045L27.243,380.101L27.332,380.155L27.422,380.206L27.513,380.256L27.606,380.304L27.7,380.349L27.796,380.392L27.892,380.433L27.99,380.472L28.089,380.509L28.189,380.543L28.291,380.575L28.393,380.604L28.496,380.632L28.601,380.656L28.706,380.679L28.813,380.698L28.92,380.716L29.029,380.73L29.082,380.737L29.137,380.742L29.192,380.747L29.247,380.752L29.302,380.756L29.357,380.759L29.413,380.761L29.469,380.763L29.524,380.764L29.581,380.764L372.419,380.764L372.476,380.764L372.531,380.763L372.587,380.761L372.643,380.759L372.698,380.756L372.753,380.752L372.808,380.747L372.863,380.742L372.918,380.737L372.971,380.73L373.08,380.716L373.187,380.698L373.294,380.679L373.399,380.656L373.504,380.632L373.607,380.604L373.709,380.575L373.811,380.543L373.911,380.509L374.01,380.472L374.108,380.433L374.204,380.392L374.3,380.349L374.394,380.304L374.487,380.256L374.578,380.206L374.668,380.155L374.757,380.101L374.844,380.045L374.93,379.988L375.014,379.928L375.097,379.866L375.178,379.803L375.258,379.738L375.336,379.671L375.412,379.602L375.486,379.531L375.559,379.459L375.63,379.385L375.699,379.309L375.767,379.232L375.832,379.153L375.895,379.073L375.957,378.991L376.016,378.908L376.074,378.823L376.129,378.737L376.182,378.65L376.234,378.561L376.282,378.471L376.329,378.379L376.374,378.287L376.416,378.193L376.456,378.098L376.494,378.002L376.529,377.905L376.562,377.806L376.592,377.707L376.62,377.607L376.646,377.505L376.669,377.403L376.689,377.3L376.707,377.196L376.722,377.09L376.729,377.038L376.735,376.985L376.74,376.932L376.744,376.879L376.748,376.825L376.751,376.771L376.754,376.717L376.755,376.663L376.757,376.609L376.757,376.554L376.757,33.446L376.757,33.391L376.755,33.337L376.754,33.283L376.751,33.229L376.748,33.175L376.744,33.121L376.74,33.068L376.735,33.015L376.729,32.962L376.722,32.91L376.707,32.804L376.689,32.7L376.669,32.597L376.646,32.495L376.62,32.393L376.592,32.293L376.562,32.194L376.529,32.095L376.494,31.998L376.456,31.902L376.416,31.807L376.374,31.713L376.329,31.621L376.282,31.529L376.234,31.439L376.182,31.35L376.129,31.263L376.074,31.177L376.016,31.092L375.957,31.009L375.895,30.927L375.832,30.847L375.767,30.768L375.699,30.691L375.63,30.615L375.559,30.541L375.486,30.469L375.412,30.398L375.336,30.329L375.258,30.262L375.178,30.197L375.097,30.134L375.014,30.072L374.93,30.012L374.844,29.955L374.757,29.899L374.668,29.845L374.578,29.794L374.487,29.744L374.394,29.696L374.3,29.651L374.204,29.608L374.108,29.567L374.01,29.528L373.911,29.491L373.811,29.457L373.709,29.425L373.607,29.396L373.504,29.368L373.399,29.344L373.294,29.321L373.187,29.302L373.08,29.284L372.971,29.27L372.918,29.263L372.863,29.258L372.808,29.253L372.753,29.248L372.698,29.244L372.643,29.241L372.587,29.239L372.531,29.237L372.476,29.236L372.419,29.236L29.581,29.236Z" style="fill:rgb(118,118,118);"/>
        </g>
    </g>
</svg>
